<svg xmlns="http://www.w3.org/2000/svg" viewBox="0 0 64 64" fill="none">
  <rect width="64" height="64" rx="14" fill="#1a6fb5"/>
  <path d="M14 40V24a2 2 0 0 1 2-2h18a2 2 0 0 1 2 2v16" stroke="#fff" stroke-width="2.5" stroke-linecap="round" stroke-linejoin="round"/>
  <path d="M36 30h7a2 2 0 0 1 1.6.8l4 5.33a2 2 0 0 1 .4 1.2V40a2 2 0 0 1-2 2h-1" stroke="#fff" stroke-width="2.5" stroke-linecap="round" stroke-linejoin="round"/>
  <path d="M14 42h-1a2 2 0 0 1-2-2v-2h3" stroke="#fff" stroke-width="2.5" stroke-linecap="round" stroke-linejoin="round"/>
  <circle cx="21" cy="42" r="3.5" stroke="#fff" stroke-width="2.5"/>
  <circle cx="41" cy="42" r="3.5" stroke="#fff" stroke-width="2.5"/>
  <path d="M24.5 42h13" stroke="#fff" stroke-width="2.5" stroke-linecap="round"/>
  <path d="M21 30l4 4 6-7" stroke="#93C5FD" stroke-width="2.8" stroke-linecap="round" stroke-linejoin="round"/>
</svg>
